<mxfile host="app.diagrams.net" modified="2022-06-10T11:49:24.209Z" agent="5.0 (Macintosh; Intel Mac OS X 10_15_7) AppleWebKit/537.36 (KHTML, like Gecko) Chrome/101.0.0.0 Safari/537.36" etag="YKhZnOqfMpgShyCZRwjV" version="17.4.3" type="github">
  <diagram id="nkoD9UPmZkFPUkoBwIe8" name="Page-1">
    <mxGraphModel dx="1426" dy="793" grid="1" gridSize="10" guides="1" tooltips="1" connect="1" arrows="1" fold="1" page="1" pageScale="1" pageWidth="827" pageHeight="1169" math="0" shadow="0">
      <root>
        <mxCell id="0" />
        <mxCell id="1" parent="0" />
        <mxCell id="CbPKqj0QBvmkr95LbLcB-1" value="" style="rounded=0;whiteSpace=wrap;html=1;fillColor=#ffe6cc;strokeColor=#d79b00;" vertex="1" parent="1">
          <mxGeometry x="246" y="160" width="130" height="90" as="geometry" />
        </mxCell>
        <mxCell id="CbPKqj0QBvmkr95LbLcB-8" value="SDK" style="text;html=1;align=center;verticalAlign=middle;resizable=0;points=[];autosize=1;strokeColor=none;fillColor=none;" vertex="1" parent="1">
          <mxGeometry x="342.5" y="160" width="40" height="20" as="geometry" />
        </mxCell>
        <mxCell id="CbPKqj0QBvmkr95LbLcB-9" value="" style="rounded=0;whiteSpace=wrap;html=1;fillColor=#e1d5e7;strokeColor=#9673a6;" vertex="1" parent="1">
          <mxGeometry x="80" y="212.5" width="100" height="300" as="geometry" />
        </mxCell>
        <mxCell id="CbPKqj0QBvmkr95LbLcB-13" value="&lt;h1&gt;&lt;span style=&quot;font-size: 12px ; font-weight: 400 ; text-align: center&quot;&gt;第三方广告源&lt;/span&gt;&lt;br&gt;&lt;/h1&gt;&lt;div&gt;&lt;span style=&quot;font-size: 12px ; font-weight: 400 ; text-align: center&quot;&gt;&lt;br&gt;&lt;/span&gt;&lt;/div&gt;&lt;div&gt;&lt;span style=&quot;font-size: 12px ; font-weight: 400 ; text-align: center&quot;&gt;&lt;br&gt;&lt;/span&gt;&lt;/div&gt;&lt;div&gt;&lt;span style=&quot;font-size: 12px ; font-weight: 400 ; text-align: center&quot;&gt;facebook&lt;/span&gt;&lt;/div&gt;&lt;div&gt;&lt;span style=&quot;font-size: 12px ; font-weight: 400 ; text-align: center&quot;&gt;&lt;br&gt;&lt;/span&gt;&lt;/div&gt;&lt;div&gt;&lt;span style=&quot;font-size: 12px ; font-weight: 400 ; text-align: center&quot;&gt;applovin&lt;/span&gt;&lt;/div&gt;&lt;div&gt;&lt;span style=&quot;font-size: 12px ; font-weight: 400 ; text-align: center&quot;&gt;&lt;br&gt;&lt;/span&gt;&lt;/div&gt;&lt;div&gt;&lt;span style=&quot;font-size: 12px ; font-weight: 400 ; text-align: center&quot;&gt;&lt;br&gt;&lt;/span&gt;&lt;/div&gt;&lt;div&gt;&lt;span style=&quot;font-size: 12px ; font-weight: 400 ; text-align: center&quot;&gt;...&lt;/span&gt;&lt;/div&gt;&lt;div&gt;&lt;span style=&quot;font-size: 12px ; font-weight: 400 ; text-align: center&quot;&gt;&lt;br&gt;&lt;/span&gt;&lt;/div&gt;&lt;div&gt;&lt;span style=&quot;font-size: 12px ; font-weight: 400 ; text-align: center&quot;&gt;&amp;nbsp;&amp;nbsp;&lt;/span&gt;&lt;/div&gt;" style="text;html=1;strokeColor=none;fillColor=none;spacing=5;spacingTop=-20;whiteSpace=wrap;overflow=hidden;rounded=0;" vertex="1" parent="1">
          <mxGeometry x="90" y="260" width="80" height="190" as="geometry" />
        </mxCell>
        <mxCell id="CbPKqj0QBvmkr95LbLcB-19" value="mysql" style="sketch=0;shadow=0;dashed=0;html=1;strokeColor=none;labelPosition=center;verticalLabelPosition=bottom;verticalAlign=top;outlineConnect=0;align=center;shape=mxgraph.office.databases.database;fillColor=#7FBA42;" vertex="1" parent="1">
          <mxGeometry x="450.5" y="334.5" width="25" height="30" as="geometry" />
        </mxCell>
        <mxCell id="CbPKqj0QBvmkr95LbLcB-26" value="" style="sketch=0;pointerEvents=1;shadow=0;dashed=0;html=1;strokeColor=none;fillColor=#505050;labelPosition=center;verticalLabelPosition=bottom;verticalAlign=top;outlineConnect=0;align=center;shape=mxgraph.office.servers.database_server_green;" vertex="1" parent="1">
          <mxGeometry x="475.5" y="463" width="43" height="56" as="geometry" />
        </mxCell>
        <mxCell id="CbPKqj0QBvmkr95LbLcB-27" value="dashboard-server&lt;br&gt;php" style="text;html=1;align=center;verticalAlign=middle;resizable=0;points=[];autosize=1;strokeColor=none;fillColor=none;" vertex="1" parent="1">
          <mxGeometry x="408.5" y="514" width="110" height="30" as="geometry" />
        </mxCell>
        <mxCell id="CbPKqj0QBvmkr95LbLcB-28" value="" style="sketch=0;pointerEvents=1;shadow=0;dashed=0;html=1;strokeColor=none;fillColor=#505050;labelPosition=center;verticalLabelPosition=bottom;verticalAlign=top;outlineConnect=0;align=center;shape=mxgraph.office.concepts.website;" vertex="1" parent="1">
          <mxGeometry x="309" y="470" width="59" height="49" as="geometry" />
        </mxCell>
        <mxCell id="CbPKqj0QBvmkr95LbLcB-29" value="dashboard-site&lt;br&gt;vue" style="text;html=1;align=center;verticalAlign=middle;resizable=0;points=[];autosize=1;strokeColor=none;fillColor=none;" vertex="1" parent="1">
          <mxGeometry x="266" y="514" width="90" height="30" as="geometry" />
        </mxCell>
        <mxCell id="CbPKqj0QBvmkr95LbLcB-31" value="" style="sketch=0;pointerEvents=1;shadow=0;dashed=0;html=1;strokeColor=none;fillColor=#505050;labelPosition=center;verticalLabelPosition=bottom;verticalAlign=top;outlineConnect=0;align=center;shape=mxgraph.office.servers.database_server_green;" vertex="1" parent="1">
          <mxGeometry x="295" y="320" width="43" height="56" as="geometry" />
        </mxCell>
        <mxCell id="CbPKqj0QBvmkr95LbLcB-32" value="OM-server&lt;br&gt;go" style="text;html=1;align=center;verticalAlign=middle;resizable=0;points=[];autosize=1;strokeColor=none;fillColor=none;" vertex="1" parent="1">
          <mxGeometry x="281.5" y="371" width="70" height="30" as="geometry" />
        </mxCell>
        <mxCell id="CbPKqj0QBvmkr95LbLcB-34" value="" style="html=1;verticalLabelPosition=bottom;labelBackgroundColor=#ffffff;verticalAlign=top;shadow=0;dashed=0;strokeWidth=1;shape=mxgraph.ios7.misc.iphone;strokeColor=#82b366;fillColor=#d5e8d4;" vertex="1" parent="1">
          <mxGeometry x="265" y="180" width="30" height="53" as="geometry" />
        </mxCell>
        <mxCell id="CbPKqj0QBvmkr95LbLcB-35" value="" style="verticalLabelPosition=bottom;verticalAlign=top;html=1;shadow=0;dashed=0;strokeWidth=1;shape=mxgraph.android.phone2;strokeColor=#d79b00;fillColor=#ffe6cc;" vertex="1" parent="1">
          <mxGeometry x="338" y="180" width="30" height="53" as="geometry" />
        </mxCell>
        <mxCell id="CbPKqj0QBvmkr95LbLcB-38" value="ios" style="text;html=1;align=center;verticalAlign=middle;resizable=0;points=[];autosize=1;strokeColor=none;fillColor=none;" vertex="1" parent="1">
          <mxGeometry x="260" y="233" width="30" height="20" as="geometry" />
        </mxCell>
        <mxCell id="CbPKqj0QBvmkr95LbLcB-39" value="android" style="text;html=1;align=center;verticalAlign=middle;resizable=0;points=[];autosize=1;strokeColor=none;fillColor=none;" vertex="1" parent="1">
          <mxGeometry x="323" y="233" width="60" height="20" as="geometry" />
        </mxCell>
        <mxCell id="CbPKqj0QBvmkr95LbLcB-48" value="" style="edgeStyle=none;rounded=0;html=1;jettySize=auto;orthogonalLoop=1;strokeColor=#00B336;strokeWidth=2;fontColor=#000000;jumpStyle=none;endArrow=block;endFill=1;startArrow=none;" edge="1" parent="1">
          <mxGeometry width="100" relative="1" as="geometry">
            <mxPoint x="496.5" y="450" as="sourcePoint" />
            <mxPoint x="497" y="410" as="targetPoint" />
          </mxGeometry>
        </mxCell>
        <mxCell id="CbPKqj0QBvmkr95LbLcB-49" value="" style="edgeStyle=none;rounded=0;html=1;jettySize=auto;orthogonalLoop=1;strokeColor=#00B336;strokeWidth=2;fontColor=#000000;jumpStyle=none;endArrow=block;endFill=1;startArrow=none;" edge="1" parent="1">
          <mxGeometry width="100" relative="1" as="geometry">
            <mxPoint x="386" y="490.5" as="sourcePoint" />
            <mxPoint x="446" y="490.5" as="targetPoint" />
          </mxGeometry>
        </mxCell>
        <mxCell id="CbPKqj0QBvmkr95LbLcB-50" value="" style="edgeStyle=none;rounded=0;html=1;jettySize=auto;orthogonalLoop=1;strokeColor=#00B336;strokeWidth=2;fontColor=#000000;jumpStyle=none;endArrow=block;endFill=1;startArrow=none;" edge="1" parent="1">
          <mxGeometry width="100" relative="1" as="geometry">
            <mxPoint x="265" y="347.5" as="sourcePoint" />
            <mxPoint x="205" y="347.5" as="targetPoint" />
          </mxGeometry>
        </mxCell>
        <mxCell id="CbPKqj0QBvmkr95LbLcB-52" value="" style="edgeStyle=none;rounded=0;html=1;entryX=0;entryY=0.5;jettySize=auto;orthogonalLoop=1;strokeColor=#00B336;strokeWidth=2;fontColor=#000000;jumpStyle=none;endArrow=block;endFill=1;startArrow=none;" edge="1" parent="1">
          <mxGeometry width="100" relative="1" as="geometry">
            <mxPoint x="368.5" y="361.5" as="sourcePoint" />
            <mxPoint x="428.5" y="361.5" as="targetPoint" />
          </mxGeometry>
        </mxCell>
        <mxCell id="CbPKqj0QBvmkr95LbLcB-53" value="" style="edgeStyle=none;rounded=0;html=1;jettySize=auto;orthogonalLoop=1;strokeColor=#00B336;strokeWidth=2;fontColor=#000000;jumpStyle=none;endArrow=block;endFill=1;startArrow=none;" edge="1" parent="1">
          <mxGeometry width="100" relative="1" as="geometry">
            <mxPoint x="290" y="260" as="sourcePoint" />
            <mxPoint x="290" y="310" as="targetPoint" />
          </mxGeometry>
        </mxCell>
        <mxCell id="CbPKqj0QBvmkr95LbLcB-54" value="1" style="ellipse;whiteSpace=wrap;html=1;aspect=fixed;strokeWidth=2;fontFamily=Tahoma;spacingBottom=4;spacingRight=2;strokeColor=#d3d3d3;" vertex="1" parent="1">
          <mxGeometry x="266" y="270" width="20" height="20" as="geometry" />
        </mxCell>
        <mxCell id="CbPKqj0QBvmkr95LbLcB-55" value="2" style="ellipse;whiteSpace=wrap;html=1;aspect=fixed;strokeWidth=2;fontFamily=Tahoma;spacingBottom=4;spacingRight=2;strokeColor=#d3d3d3;" vertex="1" parent="1">
          <mxGeometry x="226" y="325" width="20" height="20" as="geometry" />
        </mxCell>
        <mxCell id="CbPKqj0QBvmkr95LbLcB-56" value="" style="edgeStyle=none;rounded=0;html=1;jettySize=auto;orthogonalLoop=1;strokeColor=#00B336;strokeWidth=2;fontColor=#000000;jumpStyle=none;endArrow=block;endFill=1;startArrow=none;" edge="1" parent="1">
          <mxGeometry width="100" relative="1" as="geometry">
            <mxPoint x="316" y="310" as="sourcePoint" />
            <mxPoint x="316" y="260" as="targetPoint" />
          </mxGeometry>
        </mxCell>
        <mxCell id="CbPKqj0QBvmkr95LbLcB-59" value="3" style="ellipse;whiteSpace=wrap;html=1;aspect=fixed;strokeWidth=2;fontFamily=Tahoma;spacingBottom=4;spacingRight=2;strokeColor=#d3d3d3;" vertex="1" parent="1">
          <mxGeometry x="382.5" y="338" width="20" height="20" as="geometry" />
        </mxCell>
        <mxCell id="CbPKqj0QBvmkr95LbLcB-65" value="" style="rounded=0;whiteSpace=wrap;html=1;fillColor=none;strokeColor=#00B336;strokeWidth=2;" vertex="1" parent="1">
          <mxGeometry x="442" y="325" width="110" height="60" as="geometry" />
        </mxCell>
        <mxCell id="CbPKqj0QBvmkr95LbLcB-66" value="es" style="sketch=0;shadow=0;dashed=0;html=1;strokeColor=none;labelPosition=center;verticalLabelPosition=bottom;verticalAlign=top;outlineConnect=0;align=center;shape=mxgraph.office.databases.database_mini_1;fillColor=#7FBA42;" vertex="1" parent="1">
          <mxGeometry x="500" y="336" width="35" height="27" as="geometry" />
        </mxCell>
        <mxCell id="CbPKqj0QBvmkr95LbLcB-69" value="4" style="ellipse;whiteSpace=wrap;html=1;aspect=fixed;strokeWidth=2;fontFamily=Tahoma;spacingBottom=4;spacingRight=2;strokeColor=#d3d3d3;" vertex="1" parent="1">
          <mxGeometry x="318" y="270" width="20" height="20" as="geometry" />
        </mxCell>
        <mxCell id="CbPKqj0QBvmkr95LbLcB-70" value="持久化存储" style="text;html=1;align=center;verticalAlign=middle;resizable=0;points=[];autosize=1;strokeColor=none;fillColor=none;" vertex="1" parent="1">
          <mxGeometry x="457" y="385" width="80" height="20" as="geometry" />
        </mxCell>
        <UserObject label="%date{ddd mmm dd yyyy HH:MM:ss}% by glong" placeholders="1" id="CbPKqj0QBvmkr95LbLcB-71">
          <mxCell style="text;html=1;strokeColor=none;fillColor=none;align=center;verticalAlign=middle;whiteSpace=wrap;overflow=hidden;" vertex="1" parent="1">
            <mxGeometry x="189.5" y="565" width="254" height="20" as="geometry" />
          </mxCell>
        </UserObject>
      </root>
    </mxGraphModel>
  </diagram>
</mxfile>
